<svg width="40" height="41" fill="none" viewBox="0 0 40 41"><path fill-rule="evenodd" clip-rule="evenodd" d="M5.625 5.002a.625.625 0 00-.623.67l.992 13.75a.632.632 0 00.006.056c.214 4.119 3.598 7.4 7.75 7.4a7.69 7.69 0 004.588-1.512l.16 2.173c.181 4.149 3.578 7.463 7.752 7.463 4.174 0 7.571-3.314 7.754-7.464l.994-13.74a.625.625 0 00-.623-.67h-.206a.62.62 0 00-.12.01c-1.894.374-4.678.614-7.799.614-1.544 0-3.009-.059-4.325-.164l.573-7.916a.625.625 0 00-.623-.67h-.206a.626.626 0 00-.12.012c-1.894.373-4.678.613-7.799.613-3.121 0-5.905-.24-7.798-.613a.625.625 0 00-.121-.012h-.206zm16.21 9.833l-.331 4.578a7.815 7.815 0 01-1.991 4.884l.232 3.16v.02c.15 3.494 3.009 6.275 6.505 6.275s6.355-2.78 6.505-6.277v-.008l.001-.01.94-12.983c-1.953.33-4.576.528-7.446.528-1.571 0-3.065-.06-4.415-.167zM13.75 6.877c-2.87 0-5.493-.199-7.446-.528l.932 12.913c.005.029.009.059.01.09.149 3.494 3.008 6.275 6.504 6.275 3.496 0 6.355-2.78 6.505-6.277l.001-.018.94-12.983c-1.953.33-4.576.528-7.446.528z" fill="#3A3247"></path><path d="M15.148 11.062h.003l.014-.004a5.129 5.129 0 01.293-.076c.2-.047.477-.106.787-.152.653-.097 1.32-.115 1.734.04.33.123.624.325.842.51a3.45 3.45 0 01.308.292l.013.014.001.002a.625.625 0 00.953-.809l-.477.404.477-.404-.002-.002-.001-.001-.002-.002-.008-.01a3.204 3.204 0 00-.12-.13 4.746 4.746 0 00-.337-.311 4.195 4.195 0 00-1.21-.725c-.738-.275-1.684-.204-2.355-.104a10.768 10.768 0 00-1.235.26l-.02.006-.007.002h-.002s-.001.001.172.59l-.172-.59a.626.626 0 00.351 1.2zM24.783 19.163a.625.625 0 00.49-1.15l-.245.575.246-.575h-.002l-.002-.002-.008-.002-.022-.01a5.257 5.257 0 00-.343-.121 6.967 6.967 0 00-.93-.223c-.765-.13-1.82-.18-2.918.175a.625.625 0 10.384 1.19c.845-.273 1.684-.241 2.326-.133a5.709 5.709 0 01.966.253l.048.019.01.004zM33.437 19.689c-1.099-.42-2.234-.802-3.308-.764-.337.012-.61.094-.821.234-.206.136-.39.35-.516.695-.263.719-.268 1.992.39 4.07.03.1.07.206.12.337l.076.204c.079.214.166.467.224.727.107.486.159 1.238-.468 1.746-.688.557-1.547.31-2.013.116a4.535 4.535 0 01-.904-.512l-.017-.013-.005-.004-.002-.001-.001-.001.357-.468-.357.468a.625.625 0 01.758-.994s.001.001-.379.497l.38-.496.007.005a2.295 2.295 0 00.175.118c.124.078.29.172.47.248.423.176.648.143.743.066.041-.033.12-.122.035-.505a4.523 4.523 0 00-.176-.566l-.059-.157c-.055-.147-.114-.305-.157-.438-.684-2.161-.778-3.764-.37-4.877.209-.572.55-1.011.999-1.308.443-.293.953-.422 1.467-.44 1.357-.048 2.71.43 3.798.845a.625.625 0 01-.446 1.168zM28.066 30.276a.625.625 0 00-.027-.884c-1.541-1.45-3.365-1.555-4.997-1.16a.625.625 0 00.294 1.215c1.369-.331 2.708-.216 3.847.855a.625.625 0 00.883-.026zM9.871 10.8c-1.082-.038-2.306.277-3.298.712a.625.625 0 11-.502-1.145c1.106-.484 2.52-.863 3.844-.816.514.018 1.024.147 1.467.44.448.297.79.736 1 1.308.407 1.113.313 2.716-.371 4.877-.042.133-.102.29-.157.437l-.059.158a4.523 4.523 0 00-.177.566c-.084.383-.006.471.035.505.096.077.321.11.744-.066a3.285 3.285 0 00.645-.366l.007-.005a.626.626 0 01.76.993l-.38-.497.38.497-.003.002-.006.004-.017.013a3.585 3.585 0 01-.25.17c-.161.1-.39.232-.654.342-.466.195-1.326.44-2.013-.116-.627-.508-.575-1.26-.468-1.746.058-.26.145-.513.224-.727l.076-.204c.049-.13.09-.237.12-.337.658-2.077.653-3.351.39-4.07-.126-.344-.31-.56-.516-.695-.211-.14-.484-.222-.821-.234zM16.62 20.41a.625.625 0 10-.857-.91c-1.138 1.071-2.478 1.187-3.847.855a.625.625 0 10-.294 1.215c1.632.395 3.456.291 4.997-1.16zM23.714 20.628a.977.977 0 011.004.95.977.977 0 01-.935 1.018c-.562.02-.983-.436-1.001-.95-.018-.514.37-.999.932-1.018z" fill="#3A3247"></path><path d="M31.214 20.628a.977.977 0 011.004.95.977.977 0 01-.935 1.018c-.562.02-.983-.436-1.001-.95-.018-.514.37-.999.932-1.018zM16.286 12.503a.977.977 0 00-1.004.95.977.977 0 00.935 1.019c.562.02.983-.437 1.001-.951.018-.514-.37-.999-.932-1.018zM8.786 12.503a.977.977 0 00-1.004.95.977.977 0 00.935 1.019c.562.02.983-.437 1.001-.951.018-.514-.37-.999-.932-1.018z" fill="#3A3247"></path></svg>