<svg width="32" height="32" fill="none" viewBox="0 0 32 32"><path fill-rule="evenodd" clip-rule="evenodd" d="M19.004 4a.5.5 0 110 1h-.5A2.003 2.003 0 0016.5 7.003V9a.508.508 0 01-.004.062A2 2 0 0118 11h2a5.501 5.501 0 015.455 4.792c.009.02.016.04.023.06l2.29 7.39c.06.16.11.324.148.493l.003.014.03.155.002.009v.004a3.5 3.5 0 01-6.384 2.494c-.083-.127-1.03-1.599-2.84-4.411h-5.454c-1.81 2.814-2.76 4.289-2.845 4.418a3.5 3.5 0 01-6.189-3.192l2.283-7.374a.512.512 0 01.023-.06A5.501 5.501 0 0112 11h2a2 2 0 011.504-1.938A.508.508 0 0115.5 9V7.003A3.003 3.003 0 0118.503 4h.5zM16 10a1 1 0 011 1h-2a1 1 0 011-1zm-8.5 6.5A4.5 4.5 0 0112 12h8a4.5 4.5 0 013.887 6.77.5.5 0 10.863.505c.177-.303.326-.624.444-.96l1.623 5.24a2.465 2.465 0 01.122.392l.027.142a2.5 2.5 0 01-4.562 1.776L19.917 22H20c.797 0 1.556-.17 2.241-.476a.5.5 0 10-.408-.913c-.559.25-1.18.389-1.833.389h-8a4.5 4.5 0 01-4.5-4.5zm4.584 5.5H12a5.502 5.502 0 01-5.193-3.685L5.189 23.54a2.492 2.492 0 00-.19.96 2.5 2.5 0 004.593 1.37c.076-.116.906-1.404 2.492-3.869zm7.416-8.5a1 1 0 100 2 1 1 0 000-2zm-1 5a1 1 0 112 0 1 1 0 01-2 0zm3-3a1 1 0 100 2 1 1 0 000-2zm-5 1a1 1 0 112 0 1 1 0 01-2 0zm-5-2.5a.5.5 0 01.5.5V16h1.5a.5.5 0 010 1H12v1.5a.5.5 0 01-1 0V17H9.5a.5.5 0 110-1H11v-1.5a.5.5 0 01.5-.5z" fill="#585163"></path></svg>