<svg width="28" height="36" fill="none" viewBox="0 0 28 36"><path fill-rule="evenodd" clip-rule="evenodd" d="M7.676 0a.75.75 0 01.75.75v.75h12V.75a.75.75 0 011.5 0v.75h5.25a.75.75 0 01.75.75v33a.75.75 0 01-.75.75h-25.5a.75.75 0 01-.75-.75v-33a.75.75 0 01.75-.75h5.25V.75a.75.75 0 01.75-.75zm-.75 3.75V3h-4.5v6h3.75a.75.75 0 010 1.5h-3.75v24h24v-24h-15.75a.75.75 0 010-1.5h15.75V3h-4.5v.75a.75.75 0 01-1.5 0V3h-12v.75a.75.75 0 01-1.5 0zM5.76 26.17a.75.75 0 11-.67-1.34l1.5-.75a.75.75 0 01.67 1.34l-1.5.75zm3.634-9.14l-1.5-1.5a.75.75 0 111.061-1.06l1.5 1.5a.75.75 0 11-1.06 1.06zm13.695 9.14a.75.75 0 10.671-1.34l-1.5-.75a.75.75 0 10-.67 1.34l1.5.75zm-4.695-9.14a.75.75 0 001.061 0l1.5-1.5a.75.75 0 10-1.06-1.06l-1.5 1.5a.75.75 0 000 1.06zm-4.72 15.22a.75.75 0 001.5 0v-1.5a.75.75 0 00-1.5 0v1.5zm-8.92-13.085a.75.75 0 011.006-.336l1.5.75a.75.75 0 11-.67 1.342l-1.5-.75a.75.75 0 01-.336-1.006zm3.14 10.305l1.5-1.5a.75.75 0 011.061 1.06l-1.5 1.5a.75.75 0 01-1.06-1.06zm16.202-10.305a.75.75 0 00-1.007-.336l-1.5.75a.75.75 0 10.671 1.342l1.5-.75a.75.75 0 00.336-1.006zm-4.64 8.805a.75.75 0 10-1.062 1.06l1.5 1.5a.75.75 0 101.061-1.06l-1.5-1.5zM14.425 12a.75.75 0 00-.75.75v1.5a.75.75 0 001.5 0v-1.5a.75.75 0 00-.75-.75zm-3.75 10.5a3.75 3.75 0 117.5 0 3.75 3.75 0 01-7.5 0zm3.75-5.25a5.25 5.25 0 100 10.5 5.25 5.25 0 000-10.5z" fill="#504264"></path></svg>